{"glyphs":{":":{"x_min":0,"x_max":230,"ha":230,"o":"m 146 406 b 114 406 100 379 100 357 b 100 332 114 313 144 313 b 170 313 190 335 190 359 b 190 375 183 406 146 406 z m 89 84 b 57 84 43 57 43 36 b 43 10 57 -9 87 -9 b 113 -9 133 13 133 38 b 133 53 126 84 89 84 z"},"$":{"x_min":0,"x_max":501,"ha":501,"o":"m 111 445 b 111 373 164 338 242 309 b 228 227 213 141 200 64 b 133 64 88 88 59 108 b 42 99 29 80 24 64 b 58 41 130 27 194 29 b 188 -5 181 -38 175 -70 b 187 -69 200 -68 213 -67 b 219 -36 225 -2 231 30 b 280 36 318 49 349 71 b 398 106 422 153 422 201 b 422 269 381 306 288 339 b 301 415 316 496 329 567 b 376 564 409 545 433 531 b 448 542 459 562 463 578 b 445 590 396 602 337 602 b 343 639 350 675 356 706 b 342 705 328 703 315 700 b 309 669 303 633 297 600 b 261 598 222 587 194 572 b 161 554 111 509 111 445 z m 161 447 b 161 497 189 527 214 544 b 230 555 261 566 290 566 b 278 499 265 426 252 353 b 185 382 161 400 161 447 z m 372 191 b 372 155 353 118 323 95 b 303 80 272 68 237 64 b 250 137 264 219 278 295 b 345 268 372 245 372 191 z"},"?":{"x_min":0,"x_max":419,"ha":419,"o":"m 417 528 b 417 589 378 660 266 660 b 216 660 163 648 127 633 b 117 593 108 547 98 508 b 111 505 126 503 139 502 l 166 591 b 169 597 172 600 176 603 b 197 616 230 622 255 622 b 323 622 361 584 361 521 b 361 417 263 351 150 279 b 149 272 148 266 148 258 b 148 219 161 165 172 147 b 184 151 195 156 208 161 b 204 184 199 209 199 236 b 199 261 212 273 235 288 b 353 364 417 439 417 528 z m 165 75 b 140 75 118 51 118 27 b 118 7 132 -9 159 -9 b 181 -9 205 10 205 32 b 205 53 197 75 165 75 z"},"<":{"x_min":0,"x_max":501,"ha":501,"o":"m 157 236 b 234 297 310 355 393 418 b 385 430 377 443 368 453 b 283 389 189 319 102 254 b 102 243 102 228 102 215 b 190 147 275 79 366 8 b 376 18 384 30 391 41 b 312 106 229 175 157 236 z"},"'":{"x_min":0,"x_max":156,"ha":156,"o":"m 172 698 b 156 698 122 694 108 689 b 105 649 97 574 89 506 b 98 506 121 506 131 509 b 140 553 162 655 172 698 z"},"=":{"x_min":0,"x_max":501,"ha":501,"o":"m 59 281 b 185 281 331 282 446 282 b 447 295 448 313 448 326 b 321 325 187 324 61 323 b 60 311 59 296 59 281 z m 58 143 b 186 145 320 146 446 146 b 447 160 447 175 447 188 b 322 188 177 188 61 188 b 59 175 58 157 58 143 z"},"a":{"x_min":0,"x_max":440,"ha":440,"o":"m 289 124 b 276 77 263 32 258 14 b 263 3 279 -8 282 -8 b 306 -8 352 1 393 17 b 391 28 388 38 385 48 b 349 36 320 29 312 29 b 309 29 307 31 308 34 b 331 144 377 326 403 415 b 391 419 379 423 366 426 l 345 373 l 339 373 b 313 404 280 424 243 424 b 152 424 83 311 52 228 b 32 173 20 111 20 72 b 20 58 22 46 28 36 b 42 10 71 -8 92 -12 b 123 -12 189 18 284 126 z m 235 382 b 272 382 307 363 331 325 b 325 298 307 223 300 204 b 280 150 158 32 105 32 b 87 32 70 47 70 79 b 70 131 85 196 108 251 b 134 312 180 382 235 382 z"},"L":{"x_min":0,"x_max":505,"ha":505,"o":"m 10 35 b 8 24 5 11 3 -1 b 36 -1 73 0 112 0 b 243 0 358 -1 403 -1 b 423 49 449 115 466 160 b 457 163 444 167 431 169 l 378 63 b 371 52 365 45 356 42 b 339 39 303 36 176 36 b 136 36 135 39 138 56 l 236 608 b 236 610 237 612 239 612 l 332 614 b 336 626 338 639 340 650 b 303 650 263 650 224 650 b 187 650 150 650 117 650 b 115 639 112 626 110 614 l 186 612 l 87 42 b 86 40 85 38 83 38 z"},"3":{"x_min":0,"x_max":501,"ha":501,"o":"m 299 339 b 386 363 460 419 460 505 b 460 544 446 576 423 601 b 392 633 350 645 288 645 b 236 645 165 628 130 610 b 122 569 114 526 106 484 b 119 482 134 481 147 480 l 170 572 b 172 577 175 580 178 582 b 198 598 250 607 279 607 b 322 607 361 598 381 573 b 399 551 406 530 406 501 b 406 410 303 345 163 349 b 162 337 160 322 159 310 b 183 311 210 311 221 311 b 318 311 378 263 378 187 b 378 131 351 90 318 65 b 288 43 241 27 183 27 b 148 27 115 31 89 42 b 86 43 84 48 83 53 l 70 142 b 57 142 43 140 30 137 b 32 93 33 47 34 5 b 63 -5 124 -10 173 -10 b 243 -10 298 1 347 36 b 393 68 433 123 433 191 b 433 265 384 318 299 334 z"},";":{"x_min":0,"x_max":230,"ha":230,"o":"m 146 406 b 114 406 100 379 100 357 b 100 332 114 313 144 313 b 170 313 190 335 190 359 b 190 375 183 406 146 406 z m 88 77 b 62 77 38 51 38 18 b 60 12 75 3 75 -18 b 75 -48 48 -76 9 -101 b 14 -109 21 -118 28 -127 b 83 -98 134 -44 134 18 b 134 53 112 77 88 77 z"},"J":{"x_min":0,"x_max":464,"ha":464,"o":"m 492 616 b 496 628 498 640 499 650 b 470 650 434 650 400 650 b 352 650 292 650 244 650 b 242 640 239 628 237 616 l 363 613 b 345 493 327 368 309 249 b 298 176 283 117 253 81 b 230 53 190 25 126 25 b 100 25 74 31 58 40 b 54 42 53 46 53 52 l 51 147 b 40 147 27 147 14 145 b 11 100 8 51 5 4 b 41 -9 79 -13 110 -13 b 202 -13 254 20 291 62 b 330 109 346 169 360 259 b 378 377 396 494 414 610 b 414 611 414 613 417 613 z"},"V":{"x_min":0,"x_max":579,"ha":579,"o":"m 647 615 b 649 627 651 639 653 650 b 628 650 595 650 565 650 b 519 650 478 650 440 650 b 438 638 436 626 435 614 l 529 612 b 532 611 533 609 532 605 b 507 553 446 430 407 358 b 362 272 306 166 251 68 l 244 68 b 225 172 208 274 192 367 b 181 430 161 568 155 611 l 261 615 b 263 626 265 638 266 650 b 226 650 183 650 135 650 b 105 650 75 650 47 650 b 45 639 43 627 41 615 l 98 612 b 101 612 103 610 103 608 b 117 524 133 427 148 341 b 167 234 192 100 217 -11 b 225 -11 242 -11 248 -10 b 310 95 383 226 439 329 b 488 421 543 524 590 611 z"},"\"":{"x_min":0,"x_max":271,"ha":271,"o":"m 169 698 b 153 698 119 694 106 689 b 102 649 94 574 87 506 b 95 506 118 506 129 509 b 137 553 159 655 169 698 z m 297 698 b 280 698 246 694 233 689 b 229 649 222 573 214 505 b 223 505 246 506 256 509 b 265 553 287 655 297 698 z"},"7":{"x_min":0,"x_max":501,"ha":501,"o":"m 447 586 b 310 364 244 242 181 125 b 155 77 145 39 138 -1 b 155 -1 177 0 195 2 b 202 42 215 84 232 119 b 288 235 383 417 503 591 b 501 604 498 620 494 633 l 194 633 b 158 633 126 633 111 633 b 98 588 87 541 75 494 b 86 492 100 489 113 488 l 140 568 b 144 580 153 590 172 591 b 201 592 302 591 445 591 z"},"S":{"x_min":0,"x_max":471,"ha":471,"o":"m 400 494 b 412 495 426 496 437 497 b 442 542 447 588 451 633 b 430 649 381 660 333 660 b 277 660 224 646 184 619 b 142 591 104 539 104 477 b 104 406 148 369 224 327 b 305 283 357 255 357 182 b 357 136 340 97 312 71 b 281 43 235 29 177 29 b 137 29 98 37 79 51 b 76 53 73 57 74 64 l 76 169 b 63 170 50 170 38 168 b 32 119 27 69 21 19 b 54 1 115 -10 165 -10 b 235 -10 294 5 337 41 b 377 76 406 122 406 191 b 406 264 368 304 280 352 b 191 400 153 415 153 483 b 153 534 177 565 203 587 b 232 613 272 621 314 621 b 351 621 383 615 396 600 b 398 597 400 592 400 586 z"},"}":{"x_min":0,"x_max":315,"ha":315,"o":"m -28 -122 b 41 -122 100 -97 139 -52 b 171 -14 186 27 186 111 b 186 193 184 228 205 253 b 220 270 241 283 287 279 b 289 290 291 303 293 315 b 229 315 214 336 214 362 b 214 406 269 503 269 579 b 270 651 225 706 113 706 b 111 696 109 684 109 674 b 189 673 222 637 222 582 b 223 509 169 421 170 363 b 170 337 181 315 210 302 l 209 296 b 150 276 138 227 138 146 b 138 55 136 6 103 -33 b 74 -66 33 -86 -22 -87 b -25 -98 -27 -110 -28 -122 z"},"Z":{"x_min":0,"x_max":548,"ha":548,"o":"m 460 181 l 418 74 b 410 55 398 50 387 48 b 337 37 244 39 55 39 l 53 43 b 183 181 387 413 557 611 b 556 625 553 639 550 650 l 230 650 b 195 650 160 651 144 651 b 128 596 112 538 97 482 b 109 480 122 478 135 477 l 173 585 b 178 596 190 607 198 609 b 236 616 325 612 491 610 l 492 606 b 344 439 97 152 -13 33 b -11 23 -8 11 -5 0 b 14 0 88 0 170 0 b 257 0 425 -1 439 -1 b 459 56 480 117 498 174 b 487 177 473 180 460 181 z"},"x":{"x_min":0,"x_max":421,"ha":421,"o":"m 206 263 b 190 314 175 361 159 412 b 152 418 141 424 134 424 b 129 424 86 406 34 390 b 37 380 39 369 42 359 l 120 378 b 139 328 157 279 173 236 l 172 230 b 91 150 -7 30 -17 -11 b 4 -11 31 -11 47 -9 b 68 48 121 129 184 195 l 187 195 b 217 114 245 36 262 -5 b 293 -5 351 2 381 16 b 380 27 377 38 375 49 b 346 39 315 35 305 35 b 299 35 294 37 291 43 b 267 103 252 144 221 224 l 223 229 b 309 319 371 360 421 387 b 418 402 395 424 384 424 b 363 424 271 333 211 263 z"},")":{"x_min":0,"x_max":318,"ha":318,"o":"m 278 387 b 278 548 201 655 131 711 b 123 703 116 693 108 683 b 165 633 226 537 226 387 b 226 143 71 -32 -36 -102 b -31 -113 -26 -123 -20 -134 b 135 -43 278 161 278 387 z"},"&":{"x_min":0,"x_max":653,"ha":653,"o":"m 540 35 b 529 35 521 40 513 53 b 503 68 485 98 470 121 b 512 166 552 236 570 324 l 628 326 b 630 338 632 350 634 360 b 607 360 580 360 554 360 b 523 360 493 360 458 360 b 456 350 453 337 452 326 l 512 324 b 518 324 520 320 519 313 b 511 260 486 196 451 152 b 414 211 346 293 284 348 l 284 352 b 381 393 436 455 436 528 b 436 571 420 598 400 619 b 377 643 341 655 302 655 b 248 655 210 640 182 615 b 147 585 124 544 124 498 b 124 441 153 402 200 366 l 199 362 b 87 320 23 235 23 152 b 23 97 44 60 75 31 b 102 8 145 -10 206 -10 b 326 -10 384 42 438 87 b 459 57 482 16 495 -4 b 525 -3 568 -2 606 0 b 609 11 611 22 612 33 z m 174 502 b 174 538 188 569 211 591 b 236 614 262 620 295 620 b 319 620 343 613 361 594 b 377 578 386 555 386 525 b 386 447 323 401 251 374 b 204 414 174 442 174 502 z m 76 156 b 76 253 152 307 228 337 b 296 288 363 203 419 119 b 363 63 292 26 215 26 b 172 26 142 38 115 60 b 86 85 76 117 76 156 z"},"_":{"x_min":0,"x_max":500,"ha":500,"o":"m -45 -73 l -45 -127 l 455 -127 l 455 -73 z"},"v":{"x_min":0,"x_max":432,"ha":432,"o":"m 104 376 b 101 306 92 98 91 -4 b 112 -6 132 -7 143 -7 b 150 -7 215 42 286 136 b 334 199 406 327 406 397 b 406 402 387 423 381 423 b 375 423 318 410 278 403 b 279 393 280 383 281 372 l 344 379 b 350 379 355 376 355 371 b 355 321 299 217 250 150 b 211 97 174 58 144 33 b 140 29 136 30 136 36 b 138 110 148 300 154 407 b 148 415 138 424 132 424 b 127 424 74 410 23 399 b 24 389 25 379 26 368 z"},"O":{"x_min":0,"x_max":699,"ha":699,"o":"m 665 391 b 665 452 652 530 595 590 b 557 632 500 660 424 660 b 344 660 274 639 210 586 b 130 521 61 396 61 256 b 61 178 85 101 138 53 b 182 11 234 -10 306 -10 b 387 -10 453 10 517 62 b 591 124 665 244 665 391 z m 116 260 b 116 411 181 504 235 554 b 285 600 345 621 409 621 b 488 621 530 593 559 557 b 604 501 611 440 611 390 b 611 238 548 143 488 90 b 444 52 385 28 320 28 b 251 28 205 49 169 90 b 125 142 116 204 116 260 z"},"(":{"x_min":0,"x_max":318,"ha":318,"o":"m 53 192 b 53 18 129 -68 197 -134 b 207 -124 215 -115 222 -105 b 166 -49 105 32 105 191 b 105 418 256 614 366 679 b 362 690 358 701 352 711 b 185 616 53 397 53 192 z"},"C":{"x_min":0,"x_max":570,"ha":570,"o":"m 516 474 b 529 475 544 475 555 476 b 562 530 569 584 576 638 b 556 648 508 660 452 660 b 390 660 310 647 233 589 b 144 524 61 397 61 250 b 61 174 81 104 132 55 b 177 12 236 -10 303 -10 b 354 -10 419 6 499 34 b 499 47 497 61 495 72 b 443 54 375 31 311 31 b 241 31 183 65 153 109 b 126 147 115 200 115 263 b 115 356 156 471 247 551 b 298 596 362 618 426 618 b 462 618 496 613 516 601 b 519 600 520 595 520 589 z"},"W":{"x_min":0,"x_max":838,"ha":838,"o":"m 274 614 b 277 626 281 639 283 650 b 241 650 200 650 153 650 b 121 650 91 650 63 650 b 61 639 58 626 56 615 l 116 612 b 118 612 121 610 121 608 b 125 523 129 438 133 355 b 138 234 145 109 154 -11 b 164 -11 178 -10 187 -10 b 271 144 368 334 461 523 l 466 523 b 484 347 508 146 532 -11 b 542 -11 557 -10 565 -10 b 618 100 675 230 721 336 b 760 428 797 513 838 612 l 893 615 b 896 626 898 639 900 651 b 874 650 843 650 815 650 b 776 650 728 650 690 650 b 687 639 684 626 682 615 l 777 612 b 780 612 780 609 779 606 b 760 552 713 430 684 360 b 648 272 608 176 568 80 l 561 80 b 538 267 519 451 499 626 b 494 626 473 626 466 625 b 389 468 282 249 197 87 l 190 87 b 185 196 183 281 180 372 b 177 468 174 560 174 611 z"},"A":{"x_min":0,"x_max":568,"ha":568,"o":"m -53 35 b -56 23 -58 11 -60 -1 b -34 -1 -5 0 22 0 b 70 0 113 0 152 0 b 154 12 156 24 158 36 l 60 38 b 87 92 122 160 150 214 l 405 215 b 409 215 411 214 411 211 b 421 160 432 97 441 44 b 442 41 440 38 438 38 l 352 35 b 349 23 347 11 346 -1 b 383 -1 422 0 466 0 b 494 0 524 0 549 0 b 552 12 554 24 556 36 l 493 38 b 457 226 412 476 375 660 b 369 660 352 660 345 659 b 246 478 111 226 10 43 b 7 40 4 39 2 38 z m 346 570 b 365 474 386 352 404 252 l 175 252 b 172 252 172 254 173 258 b 225 354 288 475 340 570 z"},"f":{"x_min":0,"x_max":298,"ha":298,"o":"m 375 673 b 332 673 275 663 219 606 b 176 561 155 511 138 420 b 137 416 135 413 132 413 b 106 412 79 411 52 410 b 49 399 47 386 44 375 b 74 375 102 375 127 375 b 93 207 55 23 16 -160 b 32 -160 48 -160 63 -159 b 104 29 142 211 176 375 b 219 375 280 376 319 376 b 323 387 326 403 328 415 b 282 414 231 413 184 413 b 201 489 213 544 248 586 b 272 614 306 627 330 627 b 358 627 390 616 395 613 b 407 618 428 644 429 661 b 418 668 393 673 375 673 z"},"Q":{"x_min":0,"x_max":699,"ha":699,"o":"m 62 255 b 62 178 85 110 127 65 b 167 21 223 -10 314 -10 b 321 -10 329 -10 336 -10 b 401 -69 444 -101 491 -127 b 531 -149 547 -150 561 -150 b 588 -150 648 -139 691 -125 b 690 -113 688 -101 685 -90 b 661 -98 622 -105 602 -105 b 587 -105 564 -105 533 -92 b 484 -70 447 -45 393 -5 l 394 0 b 448 15 485 35 530 74 b 602 134 666 256 666 389 b 666 486 631 571 565 619 b 525 647 482 660 425 660 b 362 660 286 646 215 591 b 139 531 62 410 62 255 z m 116 267 b 116 393 170 499 239 558 b 290 602 347 621 409 621 b 477 621 522 601 555 562 b 591 519 612 466 612 388 b 612 271 573 173 504 105 b 451 54 394 28 322 28 b 253 28 202 52 168 93 b 136 133 116 182 116 267 z"},"w":{"x_min":0,"x_max":651,"ha":651,"o":"m 348 308 b 344 182 345 72 350 -3 b 367 -6 391 -7 401 -7 b 409 -7 474 61 522 142 b 572 223 623 337 624 395 b 624 401 604 423 598 423 b 594 423 539 413 495 406 b 496 396 496 386 498 375 l 564 381 b 570 382 571 376 571 373 b 571 331 528 229 492 166 b 450 95 423 62 398 34 b 395 30 391 31 391 35 b 387 100 384 282 382 402 b 369 402 351 401 340 396 b 321 326 274 228 233 159 b 201 106 169 61 148 35 b 144 30 140 33 140 38 b 140 114 145 275 150 405 b 145 413 133 424 127 424 b 120 424 76 410 15 395 b 16 385 18 375 20 364 l 101 375 b 98 300 95 104 97 -3 b 117 -6 137 -7 150 -7 b 157 -7 266 108 342 308 z"},"-":{"x_min":0,"x_max":284,"ha":284,"o":"m 131 215 b 167 215 207 215 244 215 b 247 229 249 245 251 261 b 214 260 179 260 135 259 b 102 259 68 259 34 259 b 31 245 29 229 27 215 b 62 215 101 215 131 215 z"},"E":{"x_min":0,"x_max":521,"ha":521,"o":"m 9 35 b 6 23 4 11 2 -1 b 35 -1 72 0 111 0 b 243 0 366 -1 416 -1 b 434 50 451 99 467 149 b 458 153 446 157 435 159 l 391 64 b 385 53 379 46 369 44 b 350 40 281 36 190 36 b 136 36 135 39 138 55 l 182 315 b 248 315 304 314 357 313 b 377 313 383 309 381 292 l 375 239 b 388 239 400 239 412 239 b 418 270 423 302 428 331 b 433 362 439 394 444 423 b 432 424 420 424 407 423 l 395 373 b 392 359 386 353 365 353 b 306 351 250 351 188 351 l 232 609 b 233 612 235 613 240 613 b 326 613 406 612 435 609 b 453 607 458 601 458 589 l 457 501 b 468 501 480 502 491 503 b 497 552 503 601 508 650 b 488 650 468 650 431 650 b 405 650 248 650 218 650 b 185 650 144 650 111 650 b 109 638 106 626 104 614 l 181 612 l 87 42 b 86 40 84 38 82 38 z"},"s":{"x_min":0,"x_max":348,"ha":348,"o":"m 275 295 b 286 295 299 295 309 296 b 313 330 317 367 320 403 b 303 414 266 424 233 424 b 197 424 163 420 132 404 b 98 387 62 348 62 301 b 62 240 102 218 158 193 b 202 172 233 157 233 110 b 233 77 221 57 198 41 b 180 30 151 25 127 25 b 100 25 77 30 65 38 b 61 40 58 44 58 49 l 52 125 b 42 125 28 125 17 123 b 15 84 13 45 11 7 b 24 -1 63 -10 99 -10 b 153 -10 186 -5 215 12 b 258 36 281 75 281 119 b 281 175 243 203 177 233 b 131 254 109 266 109 308 b 109 342 131 365 151 376 b 171 386 195 389 211 389 b 237 389 255 383 266 375 b 270 373 272 369 272 364 z"},">":{"x_min":0,"x_max":501,"ha":501,"o":"m 354 232 b 281 174 198 108 118 46 b 126 34 135 22 144 12 b 236 82 321 148 408 215 b 409 228 409 242 409 253 b 322 320 228 392 143 457 b 133 448 125 436 117 424 b 201 358 276 296 354 232 z"},"l":{"x_min":0,"x_max":235,"ha":235,"o":"m 181 646 b 149 515 56 119 31 17 b 38 4 54 -9 58 -9 b 81 -9 133 -3 180 13 b 179 24 178 34 175 46 b 136 35 101 29 87 29 b 83 29 82 32 83 36 b 108 147 186 467 239 684 b 232 692 224 700 217 700 b 211 700 161 683 82 673 b 82 663 83 652 85 641 z"},"8":{"x_min":0,"x_max":501,"ha":501,"o":"m 26 143 b 26 96 42 61 75 34 b 104 10 145 -10 213 -10 b 263 -10 318 0 360 27 b 411 60 453 114 453 187 b 453 248 408 300 330 331 l 331 335 b 411 370 473 423 473 513 b 473 543 459 577 433 603 b 411 625 365 645 314 645 b 267 645 222 633 182 605 b 150 581 110 530 110 472 b 110 416 137 379 195 346 l 194 342 b 91 298 26 228 26 143 z m 161 474 b 161 520 183 557 209 578 b 240 603 277 609 309 609 b 343 609 383 593 400 572 b 415 551 422 528 422 503 b 422 427 373 384 287 351 b 188 388 161 415 161 474 z m 402 179 b 402 120 368 80 334 57 b 303 36 265 26 218 26 b 173 26 133 41 110 64 b 88 85 77 111 77 149 b 77 234 155 296 236 325 b 347 289 402 252 402 179 z"},"\\":{"x_min":0,"x_max":524,"ha":524,"o":"m 462 -53 b 475 -47 485 -39 494 -32 b 414 100 339 225 264 350 b 204 452 128 583 71 679 b 58 671 46 663 35 655 b 90 564 172 425 229 330 b 297 217 397 53 462 -53 z"},"e":{"x_min":0,"x_max":383,"ha":383,"o":"m 24 99 b 24 25 84 -10 132 -10 b 192 -10 264 25 317 60 b 313 70 308 80 303 89 b 250 58 187 31 146 31 b 100 31 75 59 75 110 b 75 132 82 172 91 200 b 175 200 244 208 301 237 b 330 253 349 294 354 323 b 353 372 318 424 255 424 b 204 424 161 400 115 345 b 50 267 24 156 24 99 z m 242 384 b 284 384 302 353 302 319 b 302 290 282 273 257 261 b 219 242 160 233 101 234 b 117 282 137 313 154 335 b 176 363 205 384 242 384 z"},"b":{"x_min":0,"x_max":446,"ha":446,"o":"m 130 278 b 155 368 208 574 237 683 b 232 691 223 700 217 700 b 212 700 172 688 88 674 b 89 664 91 654 92 644 l 179 650 b 148 526 44 95 18 -2 b 31 -5 44 -8 56 -12 l 77 42 b 107 9 144 -10 176 -10 b 253 -10 310 42 343 98 b 390 178 408 276 408 335 b 408 349 406 366 401 376 b 388 402 363 421 340 425 b 272 425 206 373 136 276 z m 183 28 b 149 28 103 57 88 91 b 94 113 107 166 111 181 b 132 246 253 381 320 381 b 344 381 358 357 358 328 b 358 270 344 188 311 124 b 288 80 249 28 183 28 z"},"%":{"x_min":0,"x_max":713,"ha":713,"o":"m 544 612 b 481 521 413 426 353 340 b 273 226 194 117 107 -4 b 118 -10 129 -17 141 -23 b 226 96 314 218 385 320 b 450 413 535 531 603 626 b 599 636 594 643 588 650 b 541 646 291 645 220 645 b 187 645 153 632 124 607 b 81 569 56 506 56 449 b 56 406 72 372 95 353 b 115 335 140 325 172 325 b 207 325 241 336 273 366 b 317 408 336 468 336 516 b 336 557 322 596 302 613 b 374 613 462 614 543 616 z m 179 358 b 156 358 140 366 126 380 b 112 396 103 420 103 452 b 103 499 118 556 153 588 b 173 605 193 611 216 611 b 241 611 259 601 271 585 b 283 568 289 545 289 517 b 289 450 266 409 243 386 b 223 364 197 358 179 358 z m 497 -10 b 533 -10 566 1 598 31 b 643 75 661 136 661 179 b 661 223 648 254 631 274 b 612 296 581 309 545 309 b 511 309 477 297 448 271 b 406 232 381 171 381 114 b 381 72 397 37 420 18 b 440 -1 465 -10 497 -10 z m 504 23 b 481 23 465 30 451 45 b 437 60 428 84 428 117 b 428 164 444 221 479 253 b 496 269 520 276 540 276 b 564 276 584 266 596 249 b 607 234 614 209 614 178 b 614 119 592 75 569 51 b 548 29 522 23 504 23 z"},"m":{"x_min":0,"x_max":719,"ha":719,"o":"m 128 377 b 99 253 61 91 39 0 b 55 0 70 0 86 0 b 96 40 126 167 135 205 b 151 263 262 378 325 378 b 347 378 356 359 356 343 b 356 322 347 271 340 241 b 328 188 293 49 280 0 b 296 0 312 0 327 0 b 344 68 362 141 377 199 b 392 258 507 376 566 376 b 593 376 603 355 603 337 b 603 305 588 247 581 218 b 568 165 541 69 523 18 b 528 6 541 -9 547 -9 b 577 -9 617 0 659 13 b 657 24 655 35 652 46 b 616 35 591 29 578 29 b 575 29 574 32 575 36 b 619 171 653 305 653 346 b 653 355 651 366 647 375 b 635 402 605 419 587 421 b 542 421 476 388 399 289 l 393 291 b 399 320 403 346 403 355 b 403 367 401 376 397 383 b 383 409 360 421 340 424 b 299 423 235 390 158 297 l 150 300 b 162 347 169 378 176 407 b 170 415 161 424 154 424 b 148 424 118 411 42 398 b 43 388 43 378 45 367 z"},"#":{"x_min":0,"x_max":501,"ha":501,"o":"m 399 424 b 439 424 479 424 511 424 b 515 436 518 451 519 464 b 487 464 450 463 412 463 b 435 527 458 592 475 643 b 463 644 448 646 433 646 b 414 592 392 527 370 463 b 333 463 292 463 257 462 b 280 526 303 592 321 643 b 309 644 294 646 279 646 b 260 592 238 526 216 462 b 177 462 137 462 96 462 b 93 451 91 437 88 424 b 120 424 162 424 203 424 b 188 378 172 331 157 283 b 118 283 77 283 44 283 b 41 271 37 257 35 243 b 67 243 105 244 143 244 b 121 179 98 110 73 41 b 86 40 99 38 113 38 b 132 95 159 173 184 244 b 221 244 262 244 297 245 b 275 179 251 110 227 41 b 240 40 253 38 267 38 b 286 95 314 175 339 245 b 377 245 419 245 457 245 b 461 257 464 271 466 283 b 434 283 393 283 351 283 z m 311 283 b 274 283 233 283 197 283 b 213 329 229 377 245 424 b 283 424 320 424 357 424 z"},",":{"x_min":0,"x_max":230,"ha":230,"o":"m 134 18 b 134 53 112 77 88 77 b 62 77 38 51 38 18 b 60 12 75 3 75 -18 b 75 -48 48 -76 9 -101 b 14 -109 21 -118 28 -127 b 83 -98 134 -44 134 18 z"},"n":{"x_min":0,"x_max":493,"ha":493,"o":"m 127 374 b 100 253 59 91 37 0 b 53 0 69 0 84 0 b 95 40 127 174 137 209 b 152 266 279 377 346 377 b 371 377 380 358 380 336 b 380 307 370 265 362 234 b 347 178 313 68 296 19 b 299 3 314 -9 318 -9 b 347 -9 395 1 433 14 b 431 25 429 36 426 47 b 392 36 363 29 350 29 b 346 29 345 32 346 36 b 394 166 431 299 431 346 b 431 355 430 365 426 375 b 413 401 390 419 365 424 b 319 423 236 384 154 290 l 148 292 b 160 336 171 379 179 408 b 174 416 163 424 159 424 b 153 424 107 409 44 397 b 44 387 45 377 46 366 z"},"h":{"x_min":0,"x_max":479,"ha":479,"o":"m 181 645 b 149 513 47 91 24 0 b 40 0 56 0 71 0 b 81 37 114 173 125 213 b 141 270 266 377 331 377 b 356 377 366 357 366 336 b 366 307 355 263 348 237 b 332 176 298 69 280 18 b 281 6 296 -9 301 -9 b 322 -9 377 -2 417 12 b 416 23 414 33 411 44 b 377 35 347 29 336 29 b 332 29 329 32 332 36 b 379 167 416 298 416 346 b 416 355 415 366 411 374 b 397 407 367 421 347 424 b 313 423 238 399 144 293 l 139 295 b 164 393 222 618 239 684 b 233 692 223 700 218 700 b 211 700 152 682 86 668 b 87 659 88 649 89 639 z"},"z":{"x_min":0,"x_max":399,"ha":399,"o":"m 319 138 l 287 60 b 281 45 267 40 256 39 b 219 35 127 35 54 35 l 54 39 b 145 131 308 309 368 377 b 367 390 364 403 361 414 b 302 413 236 413 169 414 b 126 414 94 415 80 415 b 69 373 59 331 47 289 b 58 286 72 284 83 282 l 112 362 b 115 370 122 377 141 377 b 182 378 278 379 305 379 l 306 374 b 235 295 84 129 -8 29 b -4 20 0 9 4 0 b 22 0 76 0 94 0 l 198 0 b 273 0 292 -1 314 -1 b 329 43 343 87 356 131 b 345 134 333 136 319 138 z"},"B":{"x_min":0,"x_max":540,"ha":540,"o":"m 108 649 b 105 638 103 626 101 614 l 181 612 l 86 45 b 85 39 82 37 78 37 l 5 35 b 2 24 0 12 -2 0 b 36 0 77 0 107 0 b 126 0 196 -1 223 -1 b 378 -1 488 89 488 203 b 488 269 440 326 355 342 l 355 347 b 427 370 497 433 497 510 b 497 552 477 597 433 621 b 393 643 355 651 275 651 b 227 651 150 650 108 649 z m 231 611 b 240 613 257 615 293 615 b 406 615 442 560 442 501 b 442 411 341 357 246 357 b 214 357 196 358 189 360 z m 181 320 b 191 322 212 322 251 322 b 407 322 432 241 432 193 b 432 90 334 35 231 35 b 150 35 134 43 140 75 z"},"K":{"x_min":0,"x_max":598,"ha":598,"o":"m 14 35 b 11 23 9 11 7 -1 b 37 -1 74 0 108 0 b 144 0 186 -1 217 -1 b 220 11 223 24 224 35 l 134 38 l 181 313 b 194 314 230 314 246 314 b 289 314 328 236 357 172 b 392 93 426 22 444 -3 b 460 -3 482 -2 494 -2 b 517 -1 542 -1 566 0 b 569 11 571 24 573 36 l 497 37 b 485 37 475 44 467 60 b 437 115 418 157 396 205 b 372 258 343 312 301 340 l 303 345 b 389 425 479 514 572 611 l 626 615 b 629 626 631 639 632 650 b 613 650 587 650 563 650 b 517 650 479 650 441 650 b 439 638 437 626 434 614 l 503 611 b 505 611 506 609 504 607 b 439 532 302 392 260 359 b 238 352 206 352 187 351 l 231 606 b 232 610 232 612 236 612 l 310 614 b 313 626 315 639 317 650 b 286 650 251 650 219 650 b 183 650 146 650 114 650 b 111 639 109 626 107 615 l 181 611 l 87 41 b 86 40 85 38 82 38 z"},"R":{"x_min":0,"x_max":565,"ha":565,"o":"m 12 35 b 10 24 8 12 5 -1 b 35 0 70 0 106 0 b 143 0 186 0 218 -1 b 221 12 223 24 224 36 l 134 39 l 177 286 b 181 287 198 288 244 288 b 306 288 326 270 347 227 b 372 175 410 42 438 -1 b 463 -1 461 -1 483 -1 b 504 0 527 0 545 0 b 548 12 550 25 551 36 l 492 38 b 475 39 467 49 440 124 b 405 223 390 281 343 300 l 343 305 b 432 330 511 405 511 497 b 511 552 478 611 411 634 b 370 647 337 651 249 651 b 203 651 152 650 112 649 b 110 638 108 626 107 614 l 181 611 l 86 44 b 86 41 83 39 79 39 z m 232 610 b 240 613 258 615 300 615 b 398 615 454 568 454 489 b 454 411 385 323 245 323 b 213 323 190 323 183 325 z"},"T":{"x_min":0,"x_max":552,"ha":552,"o":"m 127 35 b 125 24 123 11 121 -1 b 159 -1 200 0 239 0 b 278 0 323 -1 358 -1 b 361 11 364 24 366 35 l 263 38 l 362 612 b 460 612 477 612 515 610 b 535 609 537 603 537 591 l 535 495 b 547 495 560 496 571 497 b 578 549 585 601 591 652 b 569 651 551 651 509 650 b 489 650 376 650 347 650 b 316 650 208 650 187 650 b 148 650 118 651 94 651 b 83 600 72 548 61 497 b 72 495 86 494 98 494 l 127 590 b 131 602 136 607 156 609 b 190 612 214 612 311 612 l 216 41 b 216 40 214 38 211 38 z"},"P":{"x_min":0,"x_max":524,"ha":524,"o":"m 14 36 b 12 24 9 12 7 -1 b 38 0 74 0 107 0 b 151 0 205 0 244 0 b 248 12 250 25 252 36 l 134 39 l 172 262 b 181 261 196 260 223 260 b 277 260 322 265 368 283 b 435 307 508 382 508 483 b 508 542 480 604 408 631 b 362 648 326 651 261 651 b 210 651 158 649 118 649 b 116 637 114 625 111 613 l 182 611 l 87 44 b 87 41 85 39 81 39 z m 233 611 b 237 613 256 614 284 614 b 402 614 453 561 453 479 b 453 405 420 350 357 321 b 325 306 281 299 238 299 b 208 299 181 302 181 308 z"},"|":{"x_min":0,"x_max":501,"ha":501,"o":"m 230 750 l 230 -250 l 273 -250 l 273 750 z"},"t":{"x_min":0,"x_max":326,"ha":326,"o":"m 105 76 b 105 104 126 199 136 244 b 143 278 159 344 166 375 b 225 374 277 375 322 375 b 325 386 328 399 329 414 b 279 413 226 413 175 413 b 184 455 193 492 200 524 b 200 526 199 527 197 527 b 191 527 170 523 155 514 b 146 484 137 448 129 420 b 128 416 124 413 121 413 b 98 412 73 411 49 409 b 46 398 44 386 42 375 b 67 375 95 375 119 375 b 112 344 100 296 92 259 b 86 231 54 98 54 67 b 54 62 55 57 56 52 b 68 12 108 -8 136 -8 b 164 -8 224 2 273 22 b 272 32 270 44 268 53 b 224 40 176 31 153 31 b 124 31 105 44 105 76 z"},"M":{"x_min":0,"x_max":826,"ha":826,"o":"m 171 612 b 142 440 103 215 74 43 b 73 40 70 38 67 38 l -1 35 b -3 23 -5 11 -7 -1 b 19 -1 50 0 83 0 b 122 0 166 0 202 0 b 205 11 207 24 208 35 l 115 38 b 145 213 182 419 211 592 l 219 592 b 285 283 326 111 355 10 b 366 10 383 10 388 11 b 455 118 556 298 715 590 l 722 590 b 695 422 661 209 632 43 b 632 40 628 38 625 38 l 546 35 b 544 23 542 11 540 -1 b 569 -1 607 0 642 0 b 677 0 717 0 748 0 b 750 11 752 24 754 35 l 679 38 b 709 220 743 435 772 606 b 772 610 773 611 776 612 l 843 614 b 845 626 848 638 849 650 b 804 650 752 650 702 650 b 665 585 496 267 385 78 l 380 78 b 332 279 264 594 251 650 b 202 650 150 650 105 650 b 103 638 101 626 99 614 z"},"g":{"x_min":0,"x_max":400,"ha":400,"o":"m 44 220 b 44 161 68 121 106 102 l 106 97 b 33 53 31 46 31 38 b 31 7 48 -9 77 -17 l 77 -22 b 18 -56 -1 -68 -33 -90 b -53 -103 -57 -130 -57 -144 b -57 -204 17 -242 113 -242 b 284 -242 354 -164 354 -92 b 354 -67 336 -40 314 -26 b 291 -12 254 -6 200 -1 b 133 5 83 9 83 31 b 83 48 109 63 147 87 b 238 78 289 133 312 169 b 337 208 347 258 347 294 b 347 328 336 360 324 373 l 325 377 b 360 378 395 379 428 380 b 429 391 430 405 429 415 b 404 414 313 413 295 413 b 289 413 286 414 282 416 b 272 420 254 424 225 424 b 118 424 44 316 44 220 z m 95 222 b 95 312 144 390 219 390 b 240 390 266 383 280 359 b 292 339 296 316 296 282 b 296 182 239 119 175 119 b 126 119 95 152 95 222 z m 304 -102 b 304 -172 225 -209 122 -209 b 65 -209 -8 -191 -8 -143 b -8 -102 39 -82 123 -31 b 147 -34 169 -38 203 -42 b 282 -52 304 -59 304 -102 z"},"j":{"x_min":0,"x_max":229,"ha":229,"o":"m 174 607 b 143 607 130 583 130 566 b 130 544 147 524 171 524 b 196 524 213 548 213 568 b 213 582 202 607 174 607 z m 130 374 b 112 265 89 143 71 44 b 59 -20 45 -77 19 -113 b -12 -153 -59 -177 -95 -191 b -94 -202 -64 -226 -52 -227 b -44 -227 13 -188 51 -130 b 93 -69 106 -15 124 76 b 141 170 164 291 185 406 b 181 413 170 424 165 424 b 159 424 117 411 30 399 b 31 389 30 378 31 367 z"},"i":{"x_min":0,"x_max":236,"ha":236,"o":"m 176 609 b 146 609 129 584 129 566 b 129 545 149 525 172 525 b 194 525 214 550 214 567 b 214 584 201 609 176 609 z m 126 375 b 98 252 65 118 41 19 b 47 5 69 -9 73 -9 b 97 -9 141 0 181 14 b 180 25 177 35 173 45 b 138 35 109 28 94 28 b 91 28 90 31 91 34 b 104 87 156 302 181 403 b 177 410 165 424 160 424 b 154 424 115 411 37 399 b 37 389 38 379 39 368 z"},"y":{"x_min":0,"x_max":412,"ha":412,"o":"m 92 374 b 103 252 127 35 137 -43 b 113 -79 80 -111 53 -135 b 25 -160 -7 -184 -51 -207 b -49 -221 -25 -242 -9 -242 b -1 -242 40 -213 86 -163 b 167 -76 244 29 295 126 b 335 201 393 328 393 397 b 393 402 372 424 367 424 b 360 424 314 412 264 403 b 265 393 266 383 267 373 l 332 380 b 337 381 341 378 341 372 b 341 323 294 209 261 143 b 240 100 215 58 179 5 l 175 5 b 163 117 149 269 137 407 b 130 415 120 424 114 424 b 108 424 70 408 6 389 b 7 379 9 369 11 358 z"},"@":{"x_min":0,"x_max":600,"ha":600,"o":"m 371 30 b 339 9 294 -4 241 -4 b 156 -4 80 44 80 158 b 80 307 201 467 356 467 b 472 467 521 399 521 314 b 521 245 498 197 467 168 b 443 146 415 135 387 132 b 383 132 379 136 380 141 b 396 205 422 304 437 358 b 425 361 415 364 404 366 l 387 336 l 383 336 b 365 353 337 364 311 364 b 244 364 197 295 179 239 b 170 211 164 181 164 155 b 164 146 164 141 166 136 b 176 120 209 103 221 103 b 260 103 308 140 341 172 l 347 170 b 342 150 337 131 335 119 b 343 110 358 102 364 102 b 417 102 459 119 491 146 b 542 189 565 258 565 319 b 565 432 487 499 373 499 b 174 499 36 316 36 156 b 36 27 126 -37 227 -37 b 297 -37 342 -22 383 1 b 380 11 377 21 371 30 z m 211 163 b 211 193 217 222 226 248 b 242 294 272 331 309 331 b 334 331 360 322 377 301 b 373 281 363 248 359 236 b 344 203 265 139 235 139 b 222 139 211 146 211 163 z"},".":{"x_min":0,"x_max":230,"ha":230,"o":"m 89 84 b 57 84 43 57 43 36 b 43 10 57 -9 87 -9 b 113 -9 133 13 133 38 b 133 53 126 84 89 84 z"},"p":{"x_min":0,"x_max":450,"ha":450,"o":"m 131 274 b 142 322 153 373 161 407 b 158 414 145 424 140 424 b 135 424 106 413 29 401 b 29 391 29 380 29 369 l 112 376 b 77 195 27 -48 -10 -232 b 6 -232 22 -232 37 -231 b 54 -150 75 -49 91 31 b 121 2 156 -10 187 -10 b 262 -10 317 41 349 92 b 395 168 415 265 415 339 b 415 351 413 364 408 375 b 396 402 368 422 347 425 b 277 424 212 370 140 272 z m 365 329 b 365 266 352 189 320 124 b 298 78 256 28 191 28 b 161 28 121 47 99 78 b 104 100 116 164 120 179 b 141 246 259 381 327 381 b 353 381 365 356 365 329 z"},"X":{"x_min":0,"x_max":579,"ha":579,"o":"m -34 35 b -36 23 -39 11 -41 -1 b -16 -1 16 0 45 0 b 92 0 133 0 170 0 b 173 11 175 24 177 35 l 88 38 b 115 75 251 248 289 294 l 296 294 b 321 240 392 80 408 45 b 410 41 406 39 404 38 l 322 35 b 320 23 318 11 315 0 b 352 0 392 0 436 0 b 468 0 501 0 527 0 b 531 11 533 24 535 35 l 464 38 b 420 130 372 236 328 333 l 330 339 b 406 427 486 525 553 611 l 610 615 b 613 626 616 639 617 650 b 592 650 560 650 530 650 b 484 650 445 650 408 650 b 406 639 403 626 401 615 l 488 612 b 491 611 492 609 491 607 b 464 565 341 408 313 374 l 307 374 b 287 417 225 561 204 611 l 297 614 b 300 626 302 639 304 650 b 266 650 225 650 178 650 b 147 650 117 650 90 650 b 88 639 85 626 83 615 l 145 612 b 148 612 149 611 151 608 b 193 518 233 428 273 339 l 271 331 b 193 237 108 135 31 43 b 28 40 25 38 22 38 z"},"*":{"x_min":0,"x_max":349,"ha":349,"o":"m 196 577 l 106 651 b 98 642 88 630 80 620 l 179 553 l 63 490 b 69 479 75 466 82 455 l 188 527 l 160 401 b 173 400 188 399 200 401 l 217 527 l 309 451 b 318 460 328 472 334 482 l 237 550 l 354 613 b 349 625 342 638 334 648 l 227 577 l 252 699 b 240 700 225 700 212 699 l 196 577 z"},"Y":{"x_min":0,"x_max":521,"ha":521,"o":"m 108 35 b 105 23 102 11 100 -1 b 138 -1 178 0 216 0 b 254 0 297 -1 331 -1 b 335 11 338 24 339 35 l 243 38 l 280 253 b 362 366 457 500 539 612 l 590 616 b 593 627 595 639 597 651 b 573 651 541 650 515 650 b 475 650 431 650 395 650 b 392 638 390 626 387 614 l 475 612 b 477 612 479 609 478 607 b 446 557 315 366 267 300 l 261 300 b 228 393 177 538 151 611 l 246 615 b 249 626 252 639 253 650 b 213 650 172 650 125 650 b 97 650 70 650 46 650 b 43 639 41 626 38 615 l 92 612 b 95 612 96 610 97 608 b 141 494 188 367 230 254 l 195 43 b 195 40 192 38 188 38 z"},"c":{"x_min":0,"x_max":341,"ha":341,"o":"m 22 114 b 22 29 85 -10 137 -10 b 184 -10 245 17 289 40 b 286 50 282 61 278 70 b 238 51 185 32 153 32 b 107 32 74 55 74 123 b 74 193 106 280 144 331 b 160 352 190 378 229 378 b 257 378 290 361 297 358 b 307 365 329 391 332 407 b 320 415 294 424 268 424 b 199 424 155 400 108 346 b 45 273 22 171 22 114 z"},"!":{"x_min":0,"x_max":240,"ha":240,"o":"m 219 660 b 213 660 170 653 154 646 b 145 573 129 462 117 385 b 108 317 93 223 82 150 b 93 151 107 151 120 152 b 150 303 190 505 221 658 b 221 659 220 660 219 660 z m 81 75 b 55 75 36 52 36 30 b 36 9 52 -9 79 -9 b 102 -9 122 10 122 32 b 122 49 112 75 81 75 z"},"/":{"x_min":0,"x_max":387,"ha":387,"o":"m -5 -53 b 62 53 163 217 232 330 b 290 425 374 564 430 655 b 420 663 409 671 395 679 b 336 583 259 452 198 350 b 122 225 45 100 -36 -32 b -26 -39 -16 -47 -5 -53 z"},"[":{"x_min":0,"x_max":294,"ha":294,"o":"m 96 -80 l 224 658 b 224 661 225 666 231 666 l 346 668 b 350 679 352 692 353 702 b 298 702 236 701 185 701 l 45 -117 b 97 -117 160 -118 213 -118 b 217 -107 219 -93 221 -82 z"},"6":{"x_min":0,"x_max":501,"ha":501,"o":"m 113 301 b 131 385 155 463 210 534 b 242 575 295 607 353 607 b 375 607 397 606 411 596 b 414 594 414 590 415 585 l 424 502 b 438 503 451 505 463 507 b 464 549 464 590 464 631 b 439 640 413 645 375 645 b 305 645 238 620 179 557 b 116 489 53 356 53 194 b 53 133 66 86 98 46 b 122 16 166 -10 221 -10 b 276 -10 316 5 354 34 b 400 70 442 137 442 225 b 442 264 428 305 401 336 b 377 362 343 382 292 382 b 240 382 179 359 118 301 z m 276 339 b 316 339 345 325 363 299 b 378 277 389 255 389 214 b 389 159 374 103 331 64 b 304 40 267 25 231 25 b 179 25 145 55 133 75 b 113 107 96 151 109 241 b 157 310 228 339 276 339 z"},"r":{"x_min":0,"x_max":343,"ha":343,"o":"m 128 378 b 102 259 62 82 42 0 b 57 0 73 0 88 0 b 97 39 118 130 125 159 b 149 249 253 365 292 365 b 305 365 322 360 329 357 b 337 360 357 393 357 411 b 347 417 331 424 312 424 b 276 424 209 360 152 275 l 146 278 b 161 339 170 376 177 406 b 174 413 163 424 157 424 b 153 424 100 409 45 400 b 46 390 46 379 48 368 z"},"2":{"x_min":0,"x_max":501,"ha":501,"o":"m 164 565 b 165 571 168 575 172 577 b 198 597 236 607 280 607 b 329 607 360 592 381 564 b 399 539 407 509 407 480 b 407 359 301 270 218 195 b 156 140 95 89 16 29 b 18 19 21 9 24 0 b 60 0 114 0 172 0 b 246 0 381 -1 409 -1 b 414 12 418 29 420 43 l 417 43 b 321 41 164 39 95 40 l 95 44 b 141 77 187 114 241 162 b 302 216 459 341 459 483 b 459 527 444 570 417 598 b 389 626 351 645 284 645 b 222 645 162 626 125 607 b 116 565 108 518 100 474 b 112 473 127 472 139 471 z"},"{":{"x_min":0,"x_max":315,"ha":315,"o":"m 220 -90 b 143 -89 103 -47 103 10 b 103 74 164 173 164 235 b 164 258 154 286 124 293 l 125 299 b 176 316 198 362 198 436 b 198 529 204 575 232 616 b 256 649 298 672 362 673 b 365 684 367 696 369 706 b 291 706 238 679 203 642 b 163 598 150 555 150 461 b 150 376 147 360 131 341 b 117 324 89 314 48 315 b 46 303 44 290 43 279 b 102 282 120 261 120 229 b 120 172 56 85 56 7 b 56 -63 110 -122 214 -122 b 217 -111 220 -100 220 -90 z"},"9":{"x_min":0,"x_max":501,"ha":501,"o":"m 49 123 b 52 80 55 39 58 -2 b 88 -8 116 -10 144 -10 b 228 -10 290 17 346 74 b 398 128 466 265 466 442 b 466 507 448 554 424 586 b 399 619 355 645 298 645 b 257 645 212 632 175 606 b 118 564 77 496 77 424 b 77 369 90 340 117 307 b 137 284 184 259 232 259 b 290 259 343 283 400 330 l 405 329 b 390 256 371 165 313 99 b 281 61 227 27 164 27 b 147 27 122 29 111 36 b 108 37 105 42 104 47 l 88 128 b 76 127 62 126 49 123 z m 244 298 b 209 298 171 315 153 341 b 141 359 129 380 129 429 b 129 483 152 536 194 575 b 219 599 253 610 291 610 b 338 610 369 585 385 558 b 407 522 423 463 408 383 b 361 332 301 298 244 298 z"}," ":{"x_min":0,"x_max":205,"ha":205,"o":""},"I":{"x_min":0,"x_max":296,"ha":296,"o":"m 9 35 b 7 23 5 11 2 -1 b 35 -1 74 0 110 0 b 146 0 186 -1 217 -1 b 221 11 224 24 225 35 l 135 38 l 232 608 b 233 610 233 611 235 612 l 317 615 b 320 626 323 639 325 650 b 293 650 255 650 220 650 b 182 650 141 650 107 650 b 105 639 102 626 100 615 l 182 611 l 87 43 b 87 40 85 38 81 38 z"},"H":{"x_min":0,"x_max":705,"ha":705,"o":"m 12 35 b 10 23 8 11 6 -1 b 36 -1 74 0 109 0 b 148 0 190 -1 226 -1 b 229 11 230 23 231 35 l 135 38 l 184 320 l 535 322 b 538 322 539 320 539 318 l 493 44 b 492 40 491 38 488 38 l 405 35 b 403 23 401 11 399 -1 b 432 -1 473 0 510 0 b 545 0 583 0 613 0 b 617 11 619 24 621 35 l 540 38 l 639 608 b 639 610 640 612 642 612 l 712 616 b 714 627 716 639 718 651 b 690 651 655 650 620 650 b 581 650 540 650 504 650 b 502 638 500 626 498 614 l 588 612 l 546 359 l 196 359 b 192 359 191 360 190 362 l 232 608 b 232 610 233 612 236 612 l 324 615 b 327 626 329 638 330 650 b 296 650 256 650 218 650 b 183 650 145 650 114 650 b 111 639 109 627 107 615 l 182 612 l 88 44 b 86 40 84 38 81 38 z"},"4":{"x_min":0,"x_max":501,"ha":501,"o":"m 193 33 b 190 22 187 11 186 -1 b 218 -1 261 0 304 0 b 342 0 385 0 418 0 b 420 10 423 22 425 33 l 336 36 b 345 83 353 129 361 175 b 382 175 455 175 468 175 b 473 187 476 202 477 214 b 451 213 413 213 368 213 b 394 356 418 501 443 643 b 430 644 415 645 401 645 b 361 603 278 506 198 419 b 131 343 71 275 22 221 b 26 205 31 188 36 175 b 55 174 272 175 313 175 b 305 130 297 85 289 40 b 289 38 286 36 283 36 z m 319 213 b 296 213 130 213 79 214 b 75 214 73 217 77 221 b 115 267 173 333 223 390 b 288 462 333 516 379 567 l 385 566 z"},"~":{"x_min":0,"x_max":501,"ha":501,"o":"m 163 305 b 104 305 62 249 54 183 b 69 183 82 183 93 183 b 103 223 124 255 162 255 b 197 255 220 235 243 220 b 263 207 295 181 333 181 b 395 181 431 247 434 308 b 419 308 406 308 393 308 b 388 259 368 233 336 233 b 304 233 279 254 259 267 b 230 287 202 305 163 305 z"},"D":{"x_min":0,"x_max":665,"ha":665,"o":"m 113 649 b 111 639 109 626 106 614 l 183 611 l 87 44 b 87 39 83 37 79 37 l 9 35 b 6 23 4 11 2 -1 b 38 -1 79 0 109 0 b 131 0 188 -1 227 -1 b 334 -1 407 15 474 63 b 568 129 629 251 629 380 b 629 447 605 539 530 593 b 485 625 419 651 302 651 b 228 651 161 650 113 649 z m 234 611 b 247 614 274 615 297 615 b 411 615 472 585 515 541 b 564 490 574 432 574 372 b 574 237 512 148 458 101 b 411 59 340 35 235 35 b 142 35 136 45 141 76 z"},"^":{"x_min":0,"x_max":501,"ha":501,"o":"m 438 346 b 448 353 459 361 469 369 b 405 463 344 555 291 632 b 279 632 264 632 251 631 b 200 555 139 464 76 370 b 87 361 98 354 109 347 b 168 430 225 510 270 575 b 319 509 378 428 438 346 z"},"0":{"x_min":0,"x_max":501,"ha":501,"o":"m 478 430 b 478 492 465 552 437 590 b 407 628 367 645 318 645 b 263 645 219 629 173 583 b 87 501 44 344 44 205 b 44 142 56 77 91 38 b 121 5 159 -10 204 -10 b 253 -10 299 7 339 42 b 422 113 478 269 478 430 z m 306 608 b 348 608 377 594 399 556 b 414 532 423 483 423 426 b 423 289 382 139 309 67 b 283 41 249 27 214 27 b 176 27 142 44 125 76 b 102 118 98 162 98 206 b 98 348 140 497 208 564 b 234 589 268 608 306 608 z"},"F":{"x_min":0,"x_max":512,"ha":512,"o":"m 10 35 b 8 24 6 11 4 -1 b 38 -1 74 0 113 0 b 157 0 209 0 246 0 b 250 11 252 24 254 35 l 135 38 l 180 303 b 244 303 303 303 349 302 b 369 301 376 298 373 281 l 367 227 b 379 227 393 227 405 227 b 410 255 417 288 422 315 b 427 347 434 381 440 414 b 429 414 416 415 403 414 l 389 362 b 385 348 379 342 358 341 b 305 340 247 340 186 340 l 234 613 b 241 613 249 613 259 613 b 334 613 408 612 435 610 b 453 608 457 602 457 590 l 459 497 b 470 497 484 498 495 499 b 502 549 507 601 512 651 b 490 651 471 651 434 650 b 410 650 249 650 221 650 b 184 650 147 650 115 650 b 112 639 110 626 107 614 l 183 612 l 87 45 b 87 40 85 39 81 38 z"},"`":{"x_min":0,"x_max":437,"ha":437,"o":"m 182 623 b 171 613 159 601 148 588 b 196 551 251 506 296 470 b 304 478 312 486 318 494 b 278 533 225 584 182 623 z"},"k":{"x_min":0,"x_max":424,"ha":424,"o":"m 118 211 b 160 370 218 598 239 684 b 232 692 221 700 217 700 b 213 700 148 680 88 669 b 89 660 90 649 91 638 l 180 645 b 148 515 46 91 23 0 b 39 0 54 0 70 0 b 80 37 97 110 107 149 b 128 172 144 189 162 206 b 167 210 173 214 179 214 b 201 214 220 175 246 108 b 261 67 279 23 297 -5 b 327 -5 373 2 413 16 b 412 27 410 38 407 49 b 380 40 359 34 342 34 b 336 33 329 35 325 42 b 313 63 302 91 288 130 b 274 170 249 224 208 247 l 208 250 b 275 316 340 371 415 383 b 412 402 397 424 388 424 b 345 424 245 352 124 209 z"},"u":{"x_min":0,"x_max":469,"ha":469,"o":"m 126 375 b 93 271 53 119 53 67 b 53 49 56 36 64 26 b 78 6 105 -9 123 -12 b 166 -11 237 40 310 119 l 315 117 b 304 71 295 33 292 18 b 299 5 313 -8 318 -8 b 341 -8 383 -1 426 17 b 424 27 422 37 418 48 b 380 35 351 29 342 29 b 340 29 338 32 338 35 b 356 126 412 366 422 414 b 407 414 391 414 374 413 b 362 357 333 224 325 194 b 311 145 189 33 136 33 b 118 33 102 45 102 74 b 102 93 106 123 113 155 b 125 212 160 341 181 403 b 179 412 169 424 162 424 b 158 424 117 411 43 398 b 44 388 45 378 47 367 z"},"]":{"x_min":0,"x_max":294,"ha":294,"o":"m -34 -82 b -36 -93 -39 -107 -40 -118 b 13 -118 76 -117 126 -117 l 275 701 b 225 701 163 702 107 702 b 105 692 103 679 102 668 l 216 666 b 222 666 221 661 221 658 l 89 -80 z"},"U":{"x_min":0,"x_max":639,"ha":639,"o":"m 674 615 b 676 627 678 639 679 651 b 651 651 617 650 583 650 b 543 650 505 650 472 650 b 470 638 468 626 465 614 l 553 611 b 555 611 556 609 556 607 b 539 499 516 359 499 258 b 484 166 446 103 417 78 b 391 54 357 29 284 29 b 213 29 179 63 163 88 b 141 123 132 167 150 271 l 207 606 b 208 608 209 611 212 611 l 301 614 b 304 626 306 639 308 650 b 272 650 234 650 192 650 b 160 650 125 650 95 650 b 93 638 91 626 88 614 l 157 611 l 99 265 b 84 171 83 103 132 47 b 164 9 217 -10 279 -10 b 359 -10 417 23 447 51 b 487 90 528 158 545 258 l 605 611 z"},"o":{"x_min":0,"x_max":418,"ha":418,"o":"m 374 284 b 374 334 358 371 335 394 b 316 413 288 424 256 424 b 217 424 173 413 128 370 b 66 310 25 215 25 119 b 25 81 38 48 54 28 b 71 7 100 -10 142 -10 b 201 -10 242 12 278 48 b 346 117 374 206 374 284 z m 157 26 b 132 26 109 34 96 55 b 83 75 77 98 77 132 b 77 214 110 288 135 323 b 166 365 203 387 242 387 b 276 387 293 372 304 353 b 317 333 322 311 322 268 b 322 205 296 123 257 78 b 231 48 197 26 157 26 z"},"N":{"x_min":0,"x_max":691,"ha":691,"o":"m 3 35 b 0 23 -2 11 -4 -1 b 23 -1 57 0 90 0 b 133 0 180 0 218 0 b 221 12 223 24 224 36 l 119 38 b 149 219 179 400 209 580 l 215 580 b 322 349 460 80 509 -5 b 516 -5 535 -3 543 0 l 646 607 b 646 610 647 612 650 612 l 714 615 b 717 626 719 639 720 650 b 693 650 662 650 630 650 b 589 650 545 650 509 650 b 507 638 505 626 502 614 l 601 612 b 573 435 544 256 516 77 l 510 76 b 417 267 256 593 229 650 b 187 650 142 650 102 650 b 99 639 97 627 95 615 l 172 612 l 76 42 b 75 40 73 38 69 37 z"},"+":{"x_min":0,"x_max":501,"ha":501,"o":"m 228 256 b 171 256 115 255 60 255 b 59 242 59 227 59 212 b 113 212 171 213 229 213 b 229 146 229 79 228 11 b 241 11 259 12 271 14 b 272 71 272 142 273 213 b 334 213 392 213 444 213 b 446 226 447 244 446 258 b 389 257 331 257 273 257 b 273 325 273 391 273 445 b 260 445 244 444 229 443 z"},"G":{"x_min":0,"x_max":629,"ha":629,"o":"m 601 235 b 604 247 606 259 608 271 b 582 271 555 271 526 271 b 477 271 428 271 387 271 b 385 259 383 247 381 235 l 493 233 l 464 54 b 463 44 423 26 355 26 b 277 26 211 44 158 111 b 123 154 115 215 115 264 b 115 389 174 496 242 552 b 303 604 375 621 430 621 b 482 621 517 613 540 593 b 546 587 547 581 547 574 l 541 471 b 555 472 567 473 580 474 b 587 525 593 576 600 627 b 570 648 521 660 460 660 b 390 660 317 650 234 595 b 139 531 59 397 59 256 b 59 185 76 121 132 64 b 175 21 243 -10 328 -10 b 405 -10 472 2 508 24 l 544 229 b 544 231 546 233 549 233 z"},"q":{"x_min":0,"x_max":443,"ha":443,"o":"m 301 130 b 271 14 241 -105 217 -203 b 223 -216 243 -232 247 -232 b 271 -232 310 -224 358 -207 b 357 -196 355 -185 351 -175 b 308 -189 281 -195 272 -195 b 270 -195 267 -192 267 -190 b 292 -81 366 232 415 415 b 403 420 390 424 378 426 l 360 379 l 354 379 b 328 405 294 424 250 424 b 154 424 90 323 57 239 b 38 188 22 115 22 71 b 22 57 25 42 32 31 b 49 6 76 -9 96 -12 b 153 -11 233 60 295 132 z m 73 79 b 73 125 84 185 104 238 b 133 315 180 382 243 382 b 278 382 319 368 345 331 b 340 309 324 241 318 221 b 301 166 165 32 108 32 b 89 32 73 48 73 79 z"},"d":{"x_min":0,"x_max":462,"ha":462,"o":"m 304 127 b 289 71 277 31 273 14 b 277 3 295 -8 298 -8 b 323 -8 358 -1 400 16 b 399 26 396 36 393 46 b 361 34 336 29 327 29 b 325 29 323 31 323 34 b 339 106 459 604 478 684 b 472 692 464 700 458 700 b 452 700 397 683 328 673 b 328 663 329 653 331 642 l 421 647 b 402 563 379 464 360 386 l 355 386 b 330 406 294 424 253 424 b 155 424 87 315 54 229 b 35 178 21 120 21 73 b 21 60 24 46 29 36 b 45 9 74 -9 99 -12 b 143 -11 223 38 298 130 z m 113 32 b 93 32 71 43 71 83 b 71 127 86 189 106 243 b 133 313 183 382 247 382 b 282 382 323 368 347 338 b 341 310 325 242 319 216 b 304 162 175 32 113 32 z"},"1":{"x_min":0,"x_max":501,"ha":501,"o":"m 49 35 b 46 23 44 11 42 -1 b 100 -1 157 0 215 0 b 270 0 333 0 396 0 b 398 11 400 24 402 36 l 245 39 b 281 243 316 436 351 641 b 352 644 351 645 349 645 b 344 645 227 593 103 554 b 105 543 108 532 110 521 b 180 539 233 553 288 567 b 258 390 229 221 198 42 b 198 41 196 38 194 38 z"},"5":{"x_min":0,"x_max":501,"ha":501,"o":"m 72 140 b 59 139 45 137 33 134 b 35 89 37 44 39 2 b 70 -6 113 -10 156 -10 b 238 -10 294 10 339 43 b 385 76 435 147 435 234 b 435 313 378 406 233 406 b 211 406 187 404 158 401 b 174 463 191 522 210 590 b 315 590 403 590 478 590 b 482 603 486 618 488 634 b 440 633 370 633 327 633 b 296 633 214 633 174 633 b 150 541 121 438 101 358 l 106 354 b 121 357 171 363 212 363 b 325 363 384 307 384 226 b 384 158 351 104 316 74 b 285 48 231 27 171 27 b 144 27 112 31 92 40 b 89 41 85 45 85 51 z"}}}
